<svg xmlns="http://www.w3.org/2000/svg" xmlns:xlink="http://www.w3.org/1999/xlink" width="18" height="18"><defs><path id="a" d="M0 0h18v18H0z"/></defs><g fill="none" fill-rule="evenodd"><mask id="b" fill="#fff"><use xlink:href="#a"/></mask><path fill="#666" d="M5.661 16.63c6.793 0 10.508-5.63 10.508-10.51 0-.159-.002-.318-.011-.476A7.49 7.49 0 0018 3.73a7.398 7.398 0 01-2.12.582 3.715 3.715 0 001.624-2.043 7.433 7.433 0 01-2.345.897A3.692 3.692 0 008.77 5.692c0 .29.032.57.094.843a10.494 10.494 0 01-7.612-3.859 3.69 3.69 0 001.144 4.93 3.665 3.665 0 01-1.673-.462l-.001.047a3.694 3.694 0 002.961 3.62 3.65 3.65 0 01-1.666.062 3.698 3.698 0 003.45 2.567A7.406 7.406 0 010 14.97a10.444 10.444 0 005.661 1.66" mask="url(#b)"/></g></svg>